<svg id="visual" viewBox="0 0 960 540" width="960" height="540" xmlns="http://www.w3.org/2000/svg" xmlns:xlink="http://www.w3.org/1999/xlink" version="1.1"><g stroke-width="1" stroke-linejoin="bevel"><path d="M424.4 283.6L327.1 259.4L369.1 332.6Z" fill="#003771" stroke="#003771"></path><path d="M268.8 302.6L357.1 368.7L369.1 332.6Z" fill="#3f54c9" stroke="#3f54c9"></path><path d="M369.1 332.6L421.4 416.7L424.4 283.6Z" fill="#715df2" stroke="#715df2"></path><path d="M327.1 259.4L268.8 302.6L369.1 332.6Z" fill="#14479d" stroke="#14479d"></path><path d="M284.8 264.4L268.8 302.6L327.1 259.4Z" fill="#294eb3" stroke="#294eb3"></path><path d="M424.4 283.6L447.4 203.4L327.1 259.4Z" fill="#002e5b" stroke="#002e5b"></path><path d="M327.1 259.4L260.8 176.3L284.8 264.4Z" fill="#14479d" stroke="#14479d"></path><path d="M447.4 203.4L339.1 172.3L327.1 259.4Z" fill="#3f54c9" stroke="#3f54c9"></path><path d="M447.4 203.4L441.4 159.3L339.1 172.3Z" fill="#003f87" stroke="#003f87"></path><path d="M357.1 368.7L421.4 416.7L369.1 332.6Z" fill="#002e5b" stroke="#002e5b"></path><path d="M424.4 283.6L556.6 268.6L447.4 203.4Z" fill="#002e5b" stroke="#002e5b"></path><path d="M277.8 99.1L260.8 176.3L339.1 172.3Z" fill="#002e5b" stroke="#002e5b"></path><path d="M339.1 172.3L260.8 176.3L327.1 259.4Z" fill="#294eb3" stroke="#294eb3"></path><path d="M284.8 264.4L172.5 261.4L268.8 302.6Z" fill="#00101c" stroke="#00101c"></path><path d="M421.4 416.7L514.6 362.7L424.4 283.6Z" fill="#00101c" stroke="#00101c"></path><path d="M447.4 203.4L522.6 142.3L441.4 159.3Z" fill="#002445" stroke="#002445"></path><path d="M213.5 360.7L227.8 358.7L268.8 302.6Z" fill="#002445" stroke="#002445"></path><path d="M268.8 302.6L227.8 358.7L357.1 368.7Z" fill="#00101c" stroke="#00101c"></path><path d="M357.1 368.7L353.1 484.9L421.4 416.7Z" fill="#001b30" stroke="#001b30"></path><path d="M172.5 261.4L213.5 360.7L268.8 302.6Z" fill="#002445" stroke="#002445"></path><path d="M223.8 469.9L353.1 484.9L357.1 368.7Z" fill="#003f87" stroke="#003f87"></path><path d="M514.6 362.7L556.6 268.6L424.4 283.6Z" fill="#5759de" stroke="#5759de"></path><path d="M441.4 159.3L362.1 91.1L339.1 172.3Z" fill="#14479d" stroke="#14479d"></path><path d="M277.8 99.1L206.5 181.3L260.8 176.3Z" fill="#5759de" stroke="#5759de"></path><path d="M260.8 176.3L206.5 181.3L284.8 264.4Z" fill="#003771" stroke="#003771"></path><path d="M556.6 268.6L553.6 202.4L447.4 203.4Z" fill="#14479d" stroke="#14479d"></path><path d="M441.4 159.3L409.4 60.1L362.1 91.1Z" fill="#002e5b" stroke="#002e5b"></path><path d="M206.5 181.3L172.5 261.4L284.8 264.4Z" fill="#002445" stroke="#002445"></path><path d="M553.6 202.4L522.6 142.3L447.4 203.4Z" fill="#5759de" stroke="#5759de"></path><path d="M207.5 437.9L357.1 368.7L227.8 358.7Z" fill="#00101c" stroke="#00101c"></path><path d="M421.4 416.7L521.6 426.9L514.6 362.7Z" fill="#294eb3" stroke="#294eb3"></path><path d="M362.1 91.1L277.8 99.1L339.1 172.3Z" fill="#5759de" stroke="#5759de"></path><path d="M426.4 498.9L521.6 426.9L421.4 416.7Z" fill="#002445" stroke="#002445"></path><path d="M640.9 349.7L597.9 267.4L556.6 268.6Z" fill="#003f87" stroke="#003f87"></path><path d="M353.1 484.9L426.4 498.9L421.4 416.7Z" fill="#001b30" stroke="#001b30"></path><path d="M500.6 86.1L409.4 60.1L441.4 159.3Z" fill="#715df2" stroke="#715df2"></path><path d="M362.1 91.1L352.1 0L277.8 99.1Z" fill="#5759de" stroke="#5759de"></path><path d="M556.6 268.6L597.9 267.4L553.6 202.4Z" fill="#003f87" stroke="#003f87"></path><path d="M553.6 202.4L578.9 167.3L522.6 142.3Z" fill="#003771" stroke="#003771"></path><path d="M616.9 268.6L597.9 267.4L640.9 349.7Z" fill="#5759de" stroke="#5759de"></path><path d="M109.3 393.7L207.5 437.9L213.5 360.7Z" fill="#002445" stroke="#002445"></path><path d="M213.5 360.7L207.5 437.9L227.8 358.7Z" fill="#294eb3" stroke="#294eb3"></path><path d="M613.9 43.1L500.6 86.1L522.6 142.3Z" fill="#00101c" stroke="#00101c"></path><path d="M522.6 142.3L500.6 86.1L441.4 159.3Z" fill="#003f87" stroke="#003f87"></path><path d="M597.9 267.4L578.9 167.3L553.6 202.4Z" fill="#3f54c9" stroke="#3f54c9"></path><path d="M55.3 202.4L134.5 291.6L172.5 261.4Z" fill="#003771" stroke="#003771"></path><path d="M172.5 261.4L134.5 291.6L213.5 360.7Z" fill="#14479d" stroke="#14479d"></path><path d="M207.5 437.9L223.8 469.9L357.1 368.7Z" fill="#003771" stroke="#003771"></path><path d="M353.1 484.9L445.4 540L426.4 498.9Z" fill="#003771" stroke="#003771"></path><path d="M640.9 349.7L556.6 268.6L514.6 362.7Z" fill="#5759de" stroke="#5759de"></path><path d="M597.9 267.4L616.9 268.6L578.9 167.3Z" fill="#3f54c9" stroke="#3f54c9"></path><path d="M223.8 469.9L309.1 540L353.1 484.9Z" fill="#14479d" stroke="#14479d"></path><path d="M426.4 498.9L515.6 540L521.6 426.9Z" fill="#001b30" stroke="#001b30"></path><path d="M309.1 540L445.4 540L353.1 484.9Z" fill="#00101c" stroke="#00101c"></path><path d="M515.6 540L592.9 448.9L521.6 426.9Z" fill="#002e5b" stroke="#002e5b"></path><path d="M521.6 426.9L592.9 448.9L514.6 362.7Z" fill="#14479d" stroke="#14479d"></path><path d="M592.9 448.9L640.9 349.7L514.6 362.7Z" fill="#294eb3" stroke="#294eb3"></path><path d="M447.4 0L352.1 0L409.4 60.1Z" fill="#003f87" stroke="#003f87"></path><path d="M409.4 60.1L352.1 0L362.1 91.1Z" fill="#14479d" stroke="#14479d"></path><path d="M277.8 99.1L153.5 46.1L206.5 181.3Z" fill="#294eb3" stroke="#294eb3"></path><path d="M134.5 291.6L109.3 393.7L213.5 360.7Z" fill="#3f54c9" stroke="#3f54c9"></path><path d="M110.3 454.9L208.5 540L223.8 469.9Z" fill="#002445" stroke="#002445"></path><path d="M223.8 469.9L238.8 540L309.1 540Z" fill="#715df2" stroke="#715df2"></path><path d="M536.6 0L447.4 0L500.6 86.1Z" fill="#003771" stroke="#003771"></path><path d="M500.6 86.1L447.4 0L409.4 60.1Z" fill="#3f54c9" stroke="#3f54c9"></path><path d="M208.5 540L238.8 540L223.8 469.9Z" fill="#003771" stroke="#003771"></path><path d="M134.5 291.6L88.3 347.6L109.3 393.7Z" fill="#003f87" stroke="#003f87"></path><path d="M0 270.6L88.3 347.6L134.5 291.6Z" fill="#5759de" stroke="#5759de"></path><path d="M445.4 540L515.6 540L426.4 498.9Z" fill="#002e5b" stroke="#002e5b"></path><path d="M352.1 0L271.8 0L277.8 99.1Z" fill="#002445" stroke="#002445"></path><path d="M206.5 181.3L68.3 163.3L172.5 261.4Z" fill="#715df2" stroke="#715df2"></path><path d="M110.3 454.9L223.8 469.9L207.5 437.9Z" fill="#3f54c9" stroke="#3f54c9"></path><path d="M592.9 448.9L673.2 350.7L640.9 349.7Z" fill="#715df2" stroke="#715df2"></path><path d="M640.9 349.7L686.2 344.6L616.9 268.6Z" fill="#001b30" stroke="#001b30"></path><path d="M616.9 268.6L671.2 135.3L578.9 167.3Z" fill="#002445" stroke="#002445"></path><path d="M0 456.9L110.3 454.9L109.3 393.7Z" fill="#294eb3" stroke="#294eb3"></path><path d="M109.3 393.7L110.3 454.9L207.5 437.9Z" fill="#00101c" stroke="#00101c"></path><path d="M672.2 501.9L686.2 344.6L673.2 350.7Z" fill="#3f54c9" stroke="#3f54c9"></path><path d="M673.2 350.7L686.2 344.6L640.9 349.7Z" fill="#00101c" stroke="#00101c"></path><path d="M672.2 501.9L673.2 350.7L592.9 448.9Z" fill="#002445" stroke="#002445"></path><path d="M271.8 0L153.5 46.1L277.8 99.1Z" fill="#00101c" stroke="#00101c"></path><path d="M613.9 43.1L536.6 0L500.6 86.1Z" fill="#294eb3" stroke="#294eb3"></path><path d="M613.9 43.1L522.6 142.3L578.9 167.3Z" fill="#001b30" stroke="#001b30"></path><path d="M153.5 46.1L68.3 163.3L206.5 181.3Z" fill="#002e5b" stroke="#002e5b"></path><path d="M68.3 163.3L55.3 202.4L172.5 261.4Z" fill="#5759de" stroke="#5759de"></path><path d="M88.3 347.6L0 354.7L109.3 393.7Z" fill="#003f87" stroke="#003f87"></path><path d="M726.2 233.4L671.2 135.3L616.9 268.6Z" fill="#003771" stroke="#003771"></path><path d="M671.2 135.3L613.9 43.1L578.9 167.3Z" fill="#002445" stroke="#002445"></path><path d="M613.9 43.1L585.9 0L536.6 0Z" fill="#001b30" stroke="#001b30"></path><path d="M271.8 0L160.5 0L153.5 46.1Z" fill="#002445" stroke="#002445"></path><path d="M153.5 46.1L62.3 54.1L68.3 163.3Z" fill="#003f87" stroke="#003f87"></path><path d="M686.2 344.6L726.2 233.4L616.9 268.6Z" fill="#003f87" stroke="#003f87"></path><path d="M515.6 540L638.9 540L592.9 448.9Z" fill="#002e5b" stroke="#002e5b"></path><path d="M686.2 344.6L770.5 288.6L726.2 233.4Z" fill="#5759de" stroke="#5759de"></path><path d="M638.9 540L672.2 501.9L592.9 448.9Z" fill="#14479d" stroke="#14479d"></path><path d="M0 256.4L55.3 202.4L0 163.3Z" fill="#715df2" stroke="#715df2"></path><path d="M0 256.4L0 270.6L55.3 202.4Z" fill="#00101c" stroke="#00101c"></path><path d="M55.3 202.4L0 270.6L134.5 291.6Z" fill="#294eb3" stroke="#294eb3"></path><path d="M0 163.3L55.3 202.4L68.3 163.3Z" fill="#00101c" stroke="#00101c"></path><path d="M0 270.6L0 354.7L88.3 347.6Z" fill="#5759de" stroke="#5759de"></path><path d="M53.3 0L62.3 54.1L153.5 46.1Z" fill="#294eb3" stroke="#294eb3"></path><path d="M62.3 54.1L0 163.3L68.3 163.3Z" fill="#5759de" stroke="#5759de"></path><path d="M807.5 392.7L770.5 288.6L686.2 344.6Z" fill="#003771" stroke="#003771"></path><path d="M781.5 149.3L711.2 52.1L671.2 135.3Z" fill="#14479d" stroke="#14479d"></path><path d="M671.2 135.3L711.2 52.1L613.9 43.1Z" fill="#00101c" stroke="#00101c"></path><path d="M781.5 149.3L671.2 135.3L726.2 233.4Z" fill="#00101c" stroke="#00101c"></path><path d="M613.9 43.1L735.2 0L585.9 0Z" fill="#294eb3" stroke="#294eb3"></path><path d="M110.3 454.9L56.3 540L208.5 540Z" fill="#00101c" stroke="#00101c"></path><path d="M0 456.9L56.3 540L110.3 454.9Z" fill="#5759de" stroke="#5759de"></path><path d="M0 354.7L0 456.9L109.3 393.7Z" fill="#003771" stroke="#003771"></path><path d="M841.7 328.6L792.5 242.4L770.5 288.6Z" fill="#294eb3" stroke="#294eb3"></path><path d="M770.5 288.6L792.5 242.4L726.2 233.4Z" fill="#3f54c9" stroke="#3f54c9"></path><path d="M160.5 0L53.3 0L153.5 46.1Z" fill="#14479d" stroke="#14479d"></path><path d="M62.3 54.1L0 43.1L0 163.3Z" fill="#715df2" stroke="#715df2"></path><path d="M638.9 540L713.2 540L672.2 501.9Z" fill="#001b30" stroke="#001b30"></path><path d="M672.2 501.9L807.5 392.7L686.2 344.6Z" fill="#5759de" stroke="#5759de"></path><path d="M792.5 242.4L781.5 149.3L726.2 233.4Z" fill="#002445" stroke="#002445"></path><path d="M53.3 0L0 43.1L62.3 54.1Z" fill="#002e5b" stroke="#002e5b"></path><path d="M818.5 460.9L807.5 392.7L672.2 501.9Z" fill="#003f87" stroke="#003f87"></path><path d="M0 456.9L0 540L56.3 540Z" fill="#715df2" stroke="#715df2"></path><path d="M804.5 0L735.2 0L711.2 52.1Z" fill="#294eb3" stroke="#294eb3"></path><path d="M711.2 52.1L735.2 0L613.9 43.1Z" fill="#3f54c9" stroke="#3f54c9"></path><path d="M53.3 0L0 0L0 43.1Z" fill="#14479d" stroke="#14479d"></path><path d="M807.5 392.7L841.7 328.6L770.5 288.6Z" fill="#3f54c9" stroke="#3f54c9"></path><path d="M911.7 122.3L814.5 107.1L781.5 149.3Z" fill="#5759de" stroke="#5759de"></path><path d="M781.5 149.3L814.5 107.1L711.2 52.1Z" fill="#14479d" stroke="#14479d"></path><path d="M893.7 253.4L781.5 149.3L792.5 242.4Z" fill="#5759de" stroke="#5759de"></path><path d="M807.5 392.7L896.7 411.7L841.7 328.6Z" fill="#715df2" stroke="#715df2"></path><path d="M713.2 540L818.5 460.9L672.2 501.9Z" fill="#715df2" stroke="#715df2"></path><path d="M713.2 540L818.5 540L818.5 460.9Z" fill="#00101c" stroke="#00101c"></path><path d="M960 271.6L893.7 253.4L841.7 328.6Z" fill="#715df2" stroke="#715df2"></path><path d="M835.7 0L804.5 0L814.5 107.1Z" fill="#003771" stroke="#003771"></path><path d="M814.5 107.1L804.5 0L711.2 52.1Z" fill="#003f87" stroke="#003f87"></path><path d="M841.7 328.6L893.7 253.4L792.5 242.4Z" fill="#294eb3" stroke="#294eb3"></path><path d="M896.7 411.7L807.5 392.7L818.5 460.9Z" fill="#002445" stroke="#002445"></path><path d="M818.5 540L845.7 540L818.5 460.9Z" fill="#002445" stroke="#002445"></path><path d="M884.7 480.9L896.7 411.7L818.5 460.9Z" fill="#715df2" stroke="#715df2"></path><path d="M885.7 50.1L835.7 0L814.5 107.1Z" fill="#5759de" stroke="#5759de"></path><path d="M845.7 540L884.7 480.9L818.5 460.9Z" fill="#5759de" stroke="#5759de"></path><path d="M960 146.3L911.7 122.3L893.7 253.4Z" fill="#003771" stroke="#003771"></path><path d="M893.7 253.4L911.7 122.3L781.5 149.3Z" fill="#002445" stroke="#002445"></path><path d="M911.7 122.3L885.7 50.1L814.5 107.1Z" fill="#002445" stroke="#002445"></path><path d="M960 388.7L960 271.6L841.7 328.6Z" fill="#002e5b" stroke="#002e5b"></path><path d="M960 388.7L841.7 328.6L896.7 411.7Z" fill="#002e5b" stroke="#002e5b"></path><path d="M960 271.6L960 244.4L893.7 253.4Z" fill="#715df2" stroke="#715df2"></path><path d="M911.7 122.3L960 41.1L885.7 50.1Z" fill="#003f87" stroke="#003f87"></path><path d="M960 489.9L896.7 411.7L884.7 480.9Z" fill="#001b30" stroke="#001b30"></path><path d="M960 489.9L960 388.7L896.7 411.7Z" fill="#002445" stroke="#002445"></path><path d="M960 244.4L960 146.3L893.7 253.4Z" fill="#294eb3" stroke="#294eb3"></path><path d="M960 540L960 489.9L884.7 480.9Z" fill="#14479d" stroke="#14479d"></path><path d="M960 146.3L960 41.1L911.7 122.3Z" fill="#002445" stroke="#002445"></path><path d="M885.7 50.1L960 0L835.7 0Z" fill="#002e5b" stroke="#002e5b"></path><path d="M845.7 540L960 540L884.7 480.9Z" fill="#002e5b" stroke="#002e5b"></path><path d="M960 41.1L960 0L885.7 50.1Z" fill="#294eb3" stroke="#294eb3"></path></g></svg>