<?xml version="1.0" standalone="no"?>
<!DOCTYPE svg PUBLIC "-//W3C//DTD SVG 20010904//EN"
 "http://www.w3.org/TR/2001/REC-SVG-20010904/DTD/svg10.dtd">
<svg version="1.0" xmlns="http://www.w3.org/2000/svg"
 width="480.000000pt" height="480.000000pt" viewBox="0 0 480.000000 480.000000"
 preserveAspectRatio="xMidYMid meet">

<g transform="translate(0.000000,480.000000) scale(0.100000,-0.100000)"
fill="#000000" stroke="none">
<path d="M2355 4771 c-36 -21 -179 -139 -183 -151 -2 -4 7 -10 19 -13 16 -4
43 9 103 52 45 31 86 60 92 64 6 3 53 -21 103 -54 66 -44 99 -59 119 -57 l27
3 -30 29 c-49 47 -187 146 -204 146 -9 0 -30 -8 -46 -19z"/>
<path d="M1483 4592 c-23 -12 -50 -46 -88 -110 -30 -51 -55 -96 -55 -99 0 -4
-7 -15 -17 -25 -19 -22 -10 -36 12 -18 9 7 18 10 21 7 8 -8 42 34 98 121 25
40 53 75 61 78 8 4 64 -2 124 -11 92 -15 115 -16 141 -5 17 7 29 14 28 16 -5
4 -268 64 -281 64 -7 -1 -27 -9 -44 -18z"/>
<path d="M3185 4594 c-27 -8 -81 -23 -119 -33 l-69 -18 32 -16 c29 -14 38 -14
99 -1 158 36 138 39 184 -25 87 -118 110 -146 116 -144 4 0 15 -3 25 -8 22
-12 24 13 2 31 -8 7 -15 18 -15 24 0 14 -85 143 -118 179 -29 31 -59 33 -137
11z"/>
<path d="M2454 4311 c-32 -14 -73 -68 -80 -108 -18 -94 45 -163 147 -163 56 0
59 1 59 25 0 23 -4 25 -45 25 -36 0 -52 6 -72 26 -22 22 -25 32 -20 71 7 61
26 78 90 79 48 0 52 2 52 25 0 22 -4 24 -55 26 -30 1 -64 -2 -76 -6z"/>
<path d="M2028 4288 c-39 -8 -48 -14 -48 -32 0 -23 38 -247 42 -251 8 -8 115
16 146 33 40 21 72 73 72 117 -1 51 -34 110 -73 128 -39 19 -68 20 -139 5z
m89 -48 c34 -12 53 -46 53 -94 0 -37 -30 -71 -71 -81 -26 -6 -26 -6 -38 70
-14 99 -14 103 7 108 9 3 17 5 18 6 1 0 15 -4 31 -9z"/>
<path d="M2684 4271 c-59 -36 -81 -127 -48 -197 43 -90 181 -86 229 6 19 37
19 113 0 150 -30 58 -120 78 -181 41z m106 -41 c57 -31 21 -170 -44 -170 -57
0 -80 97 -35 154 21 27 48 33 79 16z"/>
<path d="M1848 4243 c-10 -2 -18 -10 -18 -17 0 -11 19 -71 45 -141 5 -12 -13
0 -46 30 -96 90 -95 89 -129 75 -16 -7 -30 -15 -30 -19 0 -3 18 -61 41 -129
41 -122 42 -124 68 -117 14 4 27 8 28 9 2 1 -11 39 -27 85 -17 45 -30 84 -30
87 0 3 35 -26 77 -65 42 -39 80 -71 84 -71 4 0 19 4 33 10 l25 9 -43 127 c-23
70 -47 129 -52 130 -5 1 -17 0 -26 -3z"/>
<path d="M2952 4100 c-45 -60 -82 -112 -82 -114 0 -2 13 -9 30 -14 27 -10 31
-8 50 18 19 26 22 27 55 17 32 -9 35 -14 35 -49 0 -32 4 -40 26 -48 14 -6 27
-10 29 -10 7 0 14 72 17 173 3 107 2 109 -22 123 -14 7 -32 13 -40 14 -9 0
-52 -49 -98 -110z m102 -3 c-7 -46 -16 -55 -42 -38 -11 6 -8 17 15 49 15 22
29 39 31 38 1 -2 -1 -24 -4 -49z"/>
<path d="M870 4145 c-162 -32 -174 -43 -196 -181 -8 -54 -18 -128 -20 -164
l-5 -65 24 26 c23 26 28 44 58 212 9 48 19 71 34 81 21 14 156 49 233 61 24 4
41 9 38 13 -3 3 2 11 12 18 15 11 8 13 -48 13 -36 -1 -94 -7 -130 -14z"/>
<path d="M3769 4133 c8 -15 28 -24 78 -33 85 -15 164 -38 187 -55 12 -9 20
-35 26 -82 15 -119 29 -168 52 -182 21 -13 21 -13 14 91 -10 130 -22 192 -45
212 -33 30 -130 56 -228 63 -94 6 -95 6 -84 -14z"/>
<path d="M1478 4084 c-16 -8 -28 -22 -28 -32 1 -29 46 -252 53 -259 4 -3 18
-1 32 5 21 10 24 16 19 39 -4 16 -7 32 -8 37 0 5 14 18 32 29 l33 20 27 -26
c26 -24 28 -25 56 -10 l29 15 -99 99 c-54 54 -103 99 -109 99 -5 -1 -22 -8
-37 -16z m65 -90 c28 -34 28 -36 10 -49 -10 -7 -19 -12 -20 -11 -8 7 -30 96
-25 96 4 0 20 -16 35 -36z"/>
<path d="M3255 4088 c-54 -29 -57 -66 -14 -131 48 -73 20 -103 -48 -51 -33 25
-35 25 -48 8 -12 -17 -11 -22 8 -43 25 -27 76 -51 107 -51 27 0 80 52 80 78 0
10 -13 39 -30 63 -16 24 -30 52 -30 62 0 24 31 22 64 -4 25 -20 29 -20 44 -6
14 15 14 18 -4 38 -19 22 -73 49 -96 49 -7 0 -22 -6 -33 -12z"/>
<path d="M3449 3984 c-12 -14 -10 -19 15 -40 32 -28 34 -21 -51 -139 -24 -32
-43 -62 -43 -66 0 -4 11 -14 24 -22 24 -16 24 -15 87 73 35 50 65 90 68 90 3
0 15 -10 28 -21 18 -18 25 -20 38 -9 25 21 18 34 -55 88 -86 64 -93 67 -111
46z"/>
<path d="M1211 3910 l-23 -20 78 -110 c46 -63 84 -108 92 -105 26 9 122 88
122 100 0 7 -7 18 -15 25 -11 9 -22 6 -55 -21 -22 -18 -41 -30 -43 -28 -2 2
-32 43 -66 92 -35 48 -64 87 -65 87 0 -1 -12 -9 -25 -20z"/>
<path d="M2225 3923 c-507 -63 -951 -380 -1179 -839 -304 -615 -173 -1349 324
-1817 216 -203 502 -345 787 -392 144 -24 430 -17 559 13 619 145 1077 634
1180 1262 22 130 21 367 -1 495 -105 608 -539 1087 -1120 1238 -55 14 -135 31
-178 36 -73 10 -305 13 -372 4z m420 -29 c281 -45 561 -185 772 -387 195 -187
319 -383 403 -636 214 -648 -32 -1372 -595 -1746 -254 -169 -516 -248 -820
-249 -185 0 -275 12 -435 61 -401 121 -729 403 -915 788 -324 668 -119 1481
481 1910 325 233 711 323 1109 259z"/>
<path d="M2356 3665 c-21 -46 -43 -89 -50 -94 -6 -5 -52 -15 -101 -21 -50 -7
-92 -14 -94 -16 -3 -3 27 -37 67 -77 l71 -72 -16 -98 c-9 -53 -14 -100 -11
-102 3 -3 44 15 91 40 l86 46 88 -45 c48 -25 89 -43 92 -40 3 3 -2 48 -12 102
l-17 97 72 72 c40 40 70 74 67 76 -2 3 -47 11 -99 18 l-95 14 -45 92 c-25 51
-47 93 -50 93 -3 0 -23 -38 -44 -85z"/>
<path d="M3285 3185 c19 -64 39 -92 85 -115 23 -12 49 -37 64 -62 14 -23 24
-43 22 -45 -1 -1 -20 7 -42 18 -38 20 -100 22 -146 4 -11 -5 -23 4 -40 29 -17
24 -28 32 -35 25 -8 -8 -315 -8 -378 0 -24 3 -134 -17 -156 -29 -51 -26 -69
-51 -69 -96 0 -47 -10 -59 -44 -50 -29 7 -46 45 -46 102 0 117 -78 167 -169
107 -44 -29 -51 -56 -15 -61 32 -5 46 -44 26 -72 -36 -48 -71 -80 -90 -80 -28
0 -46 25 -34 46 12 21 -19 78 -54 101 -22 14 -129 35 -164 32 -8 -1 -83 -3
-166 -4 -82 -1 -158 -6 -169 -12 -13 -8 -27 -7 -50 3 -33 14 -45 10 -45 -13 0
-8 12 -13 35 -13 63 0 139 -21 159 -43 34 -40 67 -57 87 -44 25 15 24 30 0 22
-12 -4 -28 3 -45 18 -34 31 -33 44 0 22 19 -12 39 -16 68 -13 23 3 47 0 53 -6
24 -22 38 -32 56 -39 9 -3 22 -18 27 -32 11 -29 22 -34 18 -7 -2 13 3 16 27
14 37 -4 42 -9 27 -24 -17 -17 -15 -48 3 -48 8 0 15 9 15 20 0 26 20 26 27 0
5 -20 102 -100 120 -100 6 0 9 8 6 19 -3 10 2 21 10 24 12 4 15 -5 15 -43 0
-34 -5 -50 -15 -55 -20 -7 -158 21 -200 41 -29 13 -33 20 -33 55 0 32 -6 47
-29 68 -15 14 -31 36 -35 49 -8 23 -30 30 -41 12 -3 -5 1 -10 9 -10 26 0 18
-17 -15 -34 -22 -11 -36 -13 -49 -6 -10 6 -31 10 -47 10 -15 0 -37 7 -47 15
-11 8 -30 15 -41 15 -12 0 -30 9 -40 20 -11 12 -31 20 -50 20 -18 0 -38 7 -45
15 -17 21 -30 19 -30 -4 0 -24 36 -51 67 -51 21 0 66 -16 126 -46 15 -7 69
-16 120 -20 50 -4 98 -11 105 -17 6 -5 12 -26 12 -46 0 -37 9 -49 64 -85 21
-13 55 -19 127 -23 74 -5 99 -9 99 -19 0 -8 -8 -14 -17 -14 -10 -1 -94 0 -188
0 -133 1 -173 4 -185 15 -23 21 -83 19 -111 -4 -35 -28 -32 -86 7 -117 37 -31
65 -30 102 1 29 25 33 25 206 25 174 0 177 0 186 -22 5 -13 23 -36 40 -53 24
-23 30 -35 25 -54 -4 -15 -1 -27 7 -32 20 -13 38 -11 38 5 0 22 19 30 27 11 3
-10 0 -21 -8 -26 -11 -7 -9 -13 11 -29 40 -31 50 -26 50 29 0 51 7 63 73 134
l36 37 166 0 c133 0 167 -3 171 -14 8 -21 60 -39 88 -32 14 3 37 22 51 40 l26
35 -19 45 -20 45 -52 -4 c-29 -2 -60 -11 -69 -20 -24 -21 -361 -23 -361 -1 0
9 22 15 79 19 62 5 87 12 117 32 47 32 54 42 54 81 0 17 6 36 13 42 6 5 52 13
101 17 65 5 106 15 153 36 36 16 75 29 88 29 14 0 35 14 53 34 l30 35 17 -25
c25 -39 95 -66 163 -63 l56 3 22 -50 c30 -66 31 -84 2 -56 -32 29 -71 42 -129
42 -53 0 -54 -1 -38 -33 32 -61 112 -107 189 -107 24 0 27 -5 41 -65 8 -36 13
-65 11 -65 -2 0 -18 15 -35 34 -32 33 -87 56 -139 56 -26 0 -26 -1 -15 -37 20
-66 76 -108 185 -139 8 -2 12 -24 11 -66 0 -53 -2 -60 -12 -44 -32 49 -54 70
-91 87 -58 26 -76 25 -76 -6 0 -65 50 -129 129 -166 l44 -20 -7 -46 c-3 -25
-6 -52 -6 -59 0 -8 -4 -14 -10 -14 -5 0 -10 8 -10 18 0 31 -39 82 -87 112 -26
17 -51 30 -55 30 -13 0 -9 -88 6 -123 7 -18 39 -55 70 -83 l57 -50 -17 -45
c-23 -60 -34 -70 -34 -31 0 18 -7 46 -15 61 -16 32 -94 103 -105 96 -13 -8
-19 -92 -9 -129 6 -20 30 -61 55 -92 l45 -55 -28 -47 -28 -47 -5 50 c-3 28
-12 61 -19 75 -15 29 -61 80 -72 80 -10 0 -28 -50 -30 -85 -4 -60 2 -82 36
-140 l35 -58 -26 -39 c-38 -55 -45 -55 -38 -4 5 37 1 56 -25 111 -17 38 -36
65 -43 63 -6 -2 -21 -22 -32 -44 -27 -51 -26 -132 3 -198 l22 -49 -28 -29
c-15 -17 -36 -34 -45 -39 -16 -9 -16 -7 -3 26 8 19 15 49 15 67 -1 41 -32 130
-48 136 -16 5 -70 -83 -78 -127 -6 -32 4 -111 21 -152 4 -11 -8 -23 -45 -43
-52 -28 -62 -26 -32 7 13 15 17 37 17 103 0 113 -12 124 -70 63 -49 -52 -71
-126 -60 -202 l7 -44 -44 -16 c-60 -23 -64 -22 -34 13 29 35 46 88 46 145 0
63 -11 71 -56 42 -71 -45 -97 -90 -109 -189 -9 -70 -19 -75 -114 -58 l-68 13
-32 58 c-38 69 -49 68 -90 -6 -24 -45 -30 -50 -81 -61 -71 -17 -125 -17 -138
-1 -5 6 -12 35 -14 63 -7 77 -42 141 -96 175 -25 16 -50 29 -54 29 -12 0 -10
-124 3 -157 6 -15 20 -38 31 -50 30 -32 17 -38 -33 -16 l-43 19 3 61 c1 33 -3
79 -9 102 -11 40 -76 121 -98 121 -6 0 -16 -26 -23 -57 -13 -64 -1 -133 28
-165 22 -25 9 -22 -44 8 -37 22 -43 30 -38 48 4 12 9 53 12 92 5 76 -12 128
-56 168 -21 19 -21 19 -41 -25 -22 -48 -27 -138 -9 -171 17 -31 7 -29 -38 11
l-43 36 22 45 c33 65 36 148 8 205 -12 25 -27 44 -34 43 -6 -2 -24 -28 -39
-58 -24 -46 -28 -64 -24 -110 l4 -54 -38 44 -38 44 20 27 c33 47 59 112 59
152 0 41 -23 107 -38 107 -13 0 -60 -63 -78 -105 -7 -19 -14 -49 -14 -67 l0
-33 -30 50 -29 49 40 44 c48 52 69 97 69 151 0 71 -16 87 -55 53 -47 -41 -69
-74 -80 -119 l-12 -48 -19 59 -19 59 25 16 c55 34 98 89 109 139 5 27 8 58 4
70 -5 21 -5 21 -42 3 -46 -24 -85 -66 -104 -111 l-14 -35 -7 40 c-4 22 -9 50
-12 62 -3 18 4 25 38 41 70 31 106 68 123 125 19 64 19 67 -3 67 -39 0 -123
-52 -140 -86 -23 -50 -33 -41 -30 27 l3 61 59 18 c65 20 111 58 132 107 20 47
18 53 -18 53 -44 -1 -110 -31 -135 -64 -12 -14 -23 -26 -26 -26 -4 0 9 80 18
111 4 11 22 18 57 22 28 4 67 15 87 25 36 19 94 90 85 104 -7 11 -98 10 -128
-2 -14 -5 -35 -19 -46 -30 -32 -32 -33 -19 -5 47 l26 60 53 -5 c87 -7 152 26
170 85 6 20 2 22 -48 28 -46 6 -63 4 -96 -14 -22 -11 -40 -18 -40 -15 0 19 44
74 63 80 38 11 77 57 92 108 8 27 13 51 11 54 -3 2 -21 -2 -41 -9 -43 -16 -95
-70 -95 -99 0 -25 -32 -100 -42 -100 -5 0 -8 15 -8 33 0 37 -41 107 -78 132
-20 15 -22 14 -32 -26 -16 -59 -4 -112 40 -170 l37 -50 -22 -55 c-12 -30 -24
-57 -27 -59 -3 -3 -10 13 -17 34 -10 36 -89 121 -112 121 -15 0 -21 -67 -9
-110 8 -28 28 -58 60 -91 l48 -48 -11 -61 c-6 -33 -15 -60 -19 -60 -5 0 -8 6
-8 14 0 34 -99 116 -140 116 -13 0 -13 -44 0 -92 11 -37 70 -99 115 -120 23
-10 25 -16 22 -75 l-2 -63 -30 34 c-35 40 -56 52 -115 65 l-42 9 7 -36 c14
-76 47 -112 137 -151 40 -17 46 -24 51 -58 13 -75 10 -80 -21 -50 -32 31 -79
47 -135 47 -35 0 -38 -2 -32 -22 20 -67 109 -138 174 -138 15 0 31 -4 36 -8
11 -8 46 -104 40 -110 -2 -2 -16 5 -30 16 -46 37 -175 41 -175 6 0 -8 16 -32
36 -54 40 -44 82 -60 159 -60 50 0 50 0 77 -52 15 -28 26 -53 24 -56 -3 -2
-15 3 -28 12 -12 9 -42 16 -67 16 -51 0 -121 -19 -121 -33 0 -5 16 -24 37 -43
46 -42 119 -60 188 -44 26 6 48 9 49 8 1 -2 17 -22 34 -44 38 -49 40 -59 10
-43 -29 16 -107 5 -160 -22 l-42 -22 34 -29 c33 -27 85 -48 122 -48 9 0 45 9
80 20 l63 20 39 -39 39 -39 -46 0 c-46 0 -133 -38 -159 -69 -14 -18 -3 -26 65
-49 58 -19 95 -14 171 25 l55 28 48 -31 47 -31 -46 -5 c-25 -3 -54 -12 -64
-20 -32 -24 -94 -84 -94 -90 0 -11 74 -30 111 -30 43 0 105 29 151 69 l36 31
47 -21 c35 -16 44 -23 34 -30 -8 -5 -20 -9 -27 -9 -35 0 -132 -101 -132 -137
0 -19 113 -17 155 3 19 9 55 38 80 65 46 49 48 50 91 43 24 -3 47 -10 50 -15
3 -5 1 -9 -5 -9 -28 0 -137 -123 -125 -141 10 -17 123 -10 164 11 21 11 41 24
45 30 15 25 21 5 14 -47 -4 -32 -7 -58 -6 -59 1 -1 33 12 70 29 l69 30 65 -32
66 -32 -7 72 -8 72 37 -32 c21 -18 48 -37 62 -42 33 -12 130 -12 138 1 15 24
-86 140 -120 140 -30 0 -14 18 22 25 34 6 39 4 71 -34 52 -63 107 -91 180 -91
33 0 63 4 66 9 8 12 -43 84 -76 111 -15 11 -44 27 -65 34 l-38 14 30 11 c17 6
39 15 50 19 14 7 30 0 65 -26 58 -45 99 -62 148 -62 41 0 102 17 102 29 0 36
-107 111 -157 111 -18 0 -33 3 -33 8 0 4 20 19 44 33 l43 26 38 -23 c59 -35
128 -49 178 -34 23 6 51 18 61 25 16 12 17 17 6 30 -29 35 -99 67 -146 67
l-47 0 39 39 c40 40 40 40 75 25 20 -8 58 -18 85 -21 42 -6 57 -3 103 22 30
15 56 34 58 40 11 33 -115 73 -177 56 l-40 -10 35 46 c22 30 40 45 52 43 10
-1 47 -3 83 -4 73 -2 108 12 154 61 l29 31 -36 15 c-46 19 -124 19 -161 0 -15
-8 -30 -15 -31 -15 -2 0 10 25 27 55 l30 55 54 0 c74 0 130 25 165 73 16 22
29 44 29 48 0 4 -21 11 -46 15 -51 7 -118 -8 -148 -34 -18 -16 -19 -16 -12 12
18 72 34 96 65 96 73 0 159 65 176 133 7 26 6 27 -36 27 -50 0 -126 -31 -135
-55 -12 -29 -23 -15 -18 23 10 75 12 78 53 90 58 18 119 78 136 134 8 26 11
50 7 52 -4 2 -32 -4 -62 -14 -37 -12 -66 -31 -87 -56 l-33 -37 0 65 0 66 45
27 c56 32 91 85 100 148 9 57 1 59 -71 18 -35 -21 -57 -42 -70 -68 l-18 -38
-15 64 -15 64 31 26 c56 48 83 98 83 157 0 29 -4 55 -9 58 -14 9 -89 -51 -106
-83 -8 -17 -15 -39 -15 -51 0 -36 -15 -21 -38 40 l-23 61 27 32 c51 61 68 139
44 203 l-11 27 -30 -29 c-42 -40 -62 -81 -62 -128 l0 -39 -18 24 c-10 13 -26
44 -35 69 -33 94 -43 109 -83 130 -64 32 -73 29 -56 -25z m-849 -171 c-3 -8 0
-24 6 -34 10 -16 10 -23 -4 -37 -10 -9 -21 -13 -25 -9 -4 4 -2 10 4 14 13 8 6
52 -8 52 -5 0 -4 9 3 19 13 22 33 17 24 -5z m778 -29 c9 -35 1 -45 -38 -45
-18 0 -45 -9 -59 -20 -14 -11 -34 -20 -44 -20 -11 0 -28 -7 -39 -15 -10 -8
-32 -15 -49 -15 -16 0 -36 -4 -44 -9 -10 -6 -25 -4 -43 5 -32 17 -36 31 -10
37 16 4 16 4 -1 12 -20 8 -48 -20 -40 -41 2 -6 -7 -14 -20 -18 -25 -6 -37 -30
-37 -78 0 -35 -33 -57 -96 -65 -27 -3 -53 -9 -59 -13 -5 -4 -27 -10 -48 -14
-41 -8 -56 8 -41 42 4 9 6 23 5 30 -1 6 3 12 9 12 5 0 10 -4 10 -9 0 -14 44
-21 53 -8 7 9 10 9 14 0 2 -7 12 -13 20 -13 11 0 14 7 9 25 -7 27 17 85 35 85
5 0 18 -13 27 -30 9 -16 20 -30 23 -30 11 0 3 60 -10 73 -19 19 -13 25 31 32
46 8 79 23 91 43 4 6 14 12 22 12 7 0 15 5 17 11 3 9 9 9 24 1 23 -12 69 -5
85 14 6 8 17 14 23 14 6 0 -3 -13 -20 -29 -23 -22 -38 -28 -60 -24 -28 4 -28
4 -10 -11 33 -26 73 -15 111 31 14 16 36 26 73 32 29 4 55 11 59 15 12 12 21
6 27 -19z m-1067 -1 c30 -8 59 -52 44 -67 -8 -8 -11 -6 -11 6 0 13 -9 17 -34
17 -22 0 -36 6 -40 16 -13 34 -5 40 41 28z m577 -2 c10 -16 -13 -34 -53 -42
-31 -6 -41 -4 -41 6 0 25 81 56 94 36z m-684 -18 c0 -9 -7 -14 -17 -12 -25 5
-28 28 -4 28 12 0 21 -6 21 -16z m770 1 c0 -8 -9 -15 -20 -15 -20 0 -26 11
-13 23 12 13 33 7 33 -8z m-610 -145 c0 -5 -2 -10 -4 -10 -3 0 -8 5 -11 10 -3
6 -1 10 4 10 6 0 11 -4 11 -10z m300 -15 c19 -36 8 -40 -12 -4 -9 16 -14 29
-9 29 4 0 14 -11 21 -25z m-144 -24 c0 -22 -4 -37 -8 -35 -10 6 -10 36 -2 58
9 24 12 20 10 -23z m264 19 c0 -5 -4 -10 -10 -10 -5 0 -10 5 -10 10 0 6 5 10
10 10 6 0 10 -4 10 -10z m-176 -6 c23 -9 20 -42 -5 -49 -30 -10 -57 18 -39 39
14 18 21 19 44 10z m-118 -101 c-7 -17 -8 -17 -17 0 -12 21 -2 44 13 29 6 -6
8 -19 4 -29z m134 -5 c0 -10 12 -24 28 -32 15 -8 37 -27 48 -43 l22 -29 -35
-42 c-19 -23 -41 -42 -49 -42 -8 0 -16 -15 -20 -40 -6 -38 -8 -39 -24 -25 -9
8 -22 15 -28 15 -6 0 -14 11 -18 25 -3 14 -10 25 -15 25 -12 0 -52 46 -61 70
-8 21 28 77 55 86 9 3 17 15 17 28 0 19 5 22 40 21 31 0 40 -4 40 -17z m582
-92 c13 -19 9 -27 -24 -40 -32 -14 -40 -12 -87 20 -5 4 20 26 44 40 21 12 52
2 67 -20z m-1147 5 c17 -19 16 -21 -15 -40 -26 -15 -37 -17 -56 -9 -43 20 -24
68 26 68 15 0 35 -9 45 -19z"/>
<path d="M1830 2595 c-8 -9 -8 -15 -2 -15 12 0 26 19 19 26 -2 2 -10 -2 -17
-11z"/>
<path d="M1995 2479 c-10 -14 -1 -21 19 -13 9 3 13 10 10 15 -7 12 -21 11 -29
-2z"/>
<path d="M2675 2480 c-4 -6 -1 -17 5 -25 14 -17 -1 -26 -44 -29 -13 0 -22 -4
-20 -8 3 -4 -1 -10 -8 -15 -17 -10 -78 -128 -78 -149 0 -26 -55 -14 -56 12 -1
28 -12 44 -30 44 -8 0 -23 9 -34 20 -12 12 -25 18 -30 15 -16 -10 -11 -25 8
-25 27 0 55 -35 47 -59 -7 -24 -41 -37 -59 -22 -9 7 -16 7 -24 -1 -8 -8 -13
-7 -18 8 -26 81 -94 174 -128 174 -7 0 -19 7 -26 15 -9 11 -34 15 -94 15 -44
0 -86 -4 -92 -8 -18 -11 -21 -47 -6 -65 8 -9 12 -24 10 -34 -4 -23 -33 -24
-33 -1 0 10 -3 19 -7 20 -8 4 -48 -47 -48 -60 0 -5 -9 -17 -20 -27 -34 -31 -6
-39 36 -10 21 14 47 25 59 23 11 -1 30 3 41 10 37 20 105 27 115 11 17 -26 9
-51 -28 -90 -21 -22 -46 -49 -56 -60 -10 -11 -25 -18 -33 -15 -8 3 -17 -1 -21
-10 -3 -9 -15 -20 -27 -24 -21 -9 -21 -9 2 -9 12 -1 38 6 57 13 38 16 43 13
20 -10 -21 -21 -19 -51 5 -84 21 -30 81 -56 106 -46 8 3 17 -1 20 -9 4 -9 19
-15 35 -15 29 0 40 15 17 23 -8 3 -3 12 15 26 51 42 20 77 -38 41 -41 -25 -70
-25 -95 0 -16 16 -18 25 -10 40 8 16 21 20 60 20 27 0 52 -4 55 -10 10 -16 35
-12 42 6 8 22 -32 52 -80 60 -44 8 -39 15 23 35 32 10 97 14 225 14 172 0 182
-1 235 -26 131 -61 152 -69 193 -75 l42 -7 -27 22 c-14 11 -32 21 -40 21 -7 0
-28 23 -47 50 -18 28 -38 50 -43 50 -15 0 -26 44 -16 63 11 21 27 18 102 -20
38 -18 51 -21 57 -11 6 9 15 6 37 -15 33 -32 62 -36 62 -7 0 11 -5 20 -10 20
-6 0 -9 12 -8 28 2 21 -1 26 -14 24 -21 -3 -35 18 -18 28 17 10 4 30 -20 30
-13 0 -20 -8 -22 -27 -2 -16 -7 -28 -13 -28 -5 0 -11 12 -13 28 -2 19 1 27 12
27 19 0 50 56 36 65 -6 3 -15 3 -20 0 -6 -3 -15 6 -20 20 -10 25 -38 30 -32 6
1 -7 -23 -11 -73 -11 -60 0 -75 3 -75 15 0 17 -16 20 -25 5z"/>
<path d="M1952 2430 c0 -14 2 -19 5 -12 2 6 2 18 0 25 -3 6 -5 1 -5 -13z"/>
<path d="M2230 2440 c0 -5 5 -10 11 -10 5 0 7 5 4 10 -3 6 -8 10 -11 10 -2 0
-4 -4 -4 -10z"/>
<path d="M2302 2368 c7 -19 38 -22 38 -4 0 10 -9 16 -21 16 -12 0 -19 -5 -17
-12z"/>
<path d="M2520 2360 c0 -22 1 -23 24 -14 23 9 20 34 -4 34 -13 0 -20 -7 -20
-20z"/>
<path d="M2350 2294 c0 -8 5 -12 10 -9 6 3 10 10 10 16 0 5 -4 9 -10 9 -5 0
-10 -7 -10 -16z"/>
<path d="M2500 2299 c0 -5 5 -7 10 -4 6 3 10 8 10 11 0 2 -4 4 -10 4 -5 0 -10
-5 -10 -11z"/>
<path d="M1990 2220 c0 -5 6 -10 14 -10 8 0 18 5 21 10 3 6 -3 10 -14 10 -12
0 -21 -4 -21 -10z"/>
<path d="M2813 2222 c-8 -5 -8 -12 3 -26 12 -17 14 -18 14 -3 0 11 8 17 24 17
14 0 28 5 31 10 7 12 -54 14 -72 2z"/>
<path d="M2900 2200 c0 -5 -7 -10 -15 -10 -8 0 -15 -7 -15 -15 0 -11 11 -15
36 -15 29 0 35 3 30 16 -3 9 -6 20 -6 25 0 5 -7 9 -15 9 -8 0 -15 -4 -15 -10z"/>
<path d="M1910 2185 c-19 -23 0 -33 47 -26 38 6 59 31 26 31 -10 0 -27 3 -39
6 -12 3 -26 -1 -34 -11z"/>
<path d="M2543 2130 c-23 -17 -44 -37 -47 -45 -12 -33 32 -105 65 -105 10 0
23 -8 28 -19 12 -21 60 -18 74 5 4 7 20 15 36 19 46 10 56 28 45 83 -18 90
-119 122 -201 62z m133 -30 c8 0 14 -4 14 -10 0 -5 -16 -10 -35 -10 -28 0 -35
-4 -35 -20 0 -16 7 -20 33 -20 27 -1 29 -2 14 -11 -23 -13 -81 -4 -97 16 -21
25 -7 50 30 56 19 4 41 5 48 3 8 -2 20 -4 28 -4z"/>
<path d="M1799 2133 c-13 -15 -12 -15 9 -4 23 12 28 21 13 21 -5 0 -15 -7 -22
-17z"/>
<path d="M3025 2140 c3 -5 13 -10 21 -10 8 0 12 5 9 10 -3 6 -13 10 -21 10 -8
0 -12 -4 -9 -10z"/>
<path d="M3065 2111 c-3 -6 -35 -11 -71 -11 -35 0 -64 -4 -64 -9 0 -12 84 -26
99 -17 14 9 25 -14 12 -27 -13 -13 -15 -47 -2 -47 10 0 45 109 38 117 -3 2 -8
0 -12 -6z"/>
<path d="M1780 2088 c0 -14 9 -33 19 -42 19 -17 19 -17 14 3 -4 18 -1 21 23
22 16 0 47 6 69 14 l40 13 -67 1 c-36 1 -73 4 -82 7 -12 5 -16 0 -16 -18z"/>
<path d="M1820 1978 c0 -14 7 -29 16 -32 12 -5 14 -1 9 17 -11 35 -25 44 -25
15z"/>
<path d="M2373 1983 c-9 -3 -10 -10 -3 -24 14 -25 26 -24 34 3 7 29 23 14 28
-26 2 -16 8 -31 14 -33 12 -4 37 75 25 81 -10 5 -84 5 -98 -1z"/>
<path d="M1704 1888 c4 -46 13 -101 21 -123 12 -35 17 -40 40 -37 19 2 32 -5
48 -25 12 -15 43 -51 70 -80 86 -91 311 -203 412 -203 50 0 69 -10 87 -41 12
-20 25 -29 43 -29 18 0 31 9 43 29 17 31 38 41 85 41 72 0 238 67 328 131 30
21 138 130 162 163 10 14 21 17 40 12 33 -8 40 5 56 104 19 125 19 135 -4 135
-13 0 -25 -11 -34 -31 -8 -20 -34 -45 -68 -65 -30 -19 -63 -41 -73 -49 -10 -8
-26 -20 -36 -26 -10 -6 -14 -15 -10 -22 5 -9 14 -8 36 3 51 26 41 1 -17 -44
-67 -52 -120 -79 -232 -120 -105 -39 -152 -40 -180 -5 -12 15 -21 33 -21 41 0
22 -29 73 -42 73 -18 0 -1 -99 24 -136 17 -25 34 -36 63 -42 39 -8 109 0 150
17 152 63 247 116 272 150 6 9 15 13 19 9 4 -4 -22 -36 -58 -71 -61 -61 -130
-107 -162 -107 -8 0 -16 -4 -18 -8 -4 -9 -113 -57 -150 -66 -17 -4 -28 -1 -32
7 -5 9 -7 9 -12 0 -3 -7 -19 -13 -35 -13 -16 0 -37 -8 -47 -17 -46 -45 -48
-46 -80 -15 -24 24 -41 30 -96 35 -67 6 -81 11 -216 75 -99 46 -141 78 -134
100 5 14 4 15 -5 2 -9 -13 -16 -9 -46 22 -41 43 -48 73 -7 36 29 -27 135 -88
152 -88 6 0 27 -11 47 -25 20 -13 40 -22 45 -19 4 3 18 -2 30 -10 15 -11 45
-16 91 -16 62 0 71 3 98 29 16 16 29 36 29 45 0 23 32 86 44 86 15 0 -16 20
-32 20 -7 0 -24 -26 -37 -57 -30 -68 -47 -83 -91 -83 -65 0 -238 75 -356 154
-60 39 -71 68 -16 40 24 -12 33 -13 42 -4 7 8 7 14 1 16 -44 17 -159 108 -184
147 -42 63 -55 50 -47 -45z m82 -50 c20 -16 28 -30 26 -45 -3 -20 -6 -22 -25
-11 -12 6 -25 16 -29 22 -7 11 -11 56 -5 56 2 0 16 -10 33 -22z m1310 6 c-3
-9 -6 -26 -6 -39 0 -15 -7 -25 -22 -28 -26 -7 -24 -8 -32 21 -6 16 -3 22 8 22
8 0 20 9 26 20 13 24 35 27 26 4z"/>
<path d="M3002 1940 c-16 -26 -15 -40 3 -40 10 0 15 10 15 30 0 35 -1 36 -18
10z"/>
<path d="M2097 1923 c-14 -14 -39 -19 -112 -21 -104 -4 -110 -12 -39 -44 24
-10 44 -23 44 -29 0 -6 -5 -7 -11 -3 -7 4 -10 -1 -7 -12 2 -11 12 -19 23 -19
11 0 24 -10 30 -22 6 -15 18 -23 33 -23 21 0 23 -4 18 -24 -8 -33 9 -42 31
-17 17 21 17 21 59 -4 47 -27 98 -25 121 4 10 13 14 13 21 3 7 -10 19 -3 51
29 31 32 41 50 41 75 0 18 6 35 13 37 8 4 6 6 -4 6 -18 1 -58 41 -41 41 6 0 9
7 6 15 -4 8 -15 15 -25 15 -12 0 -16 -5 -13 -15 8 -21 -9 -19 -37 4 -22 18
-23 18 -40 -3 -18 -21 -18 -21 -34 -1 -10 12 -15 14 -12 5 2 -8 -3 -23 -12
-33 -15 -18 -14 -20 9 -39 24 -19 24 -19 40 2 12 16 25 21 46 18 27 -3 29 -6
29 -48 0 -40 -2 -45 -22 -44 -13 0 -23 -5 -23 -12 0 -20 -28 -24 -80 -13 -49
10 -75 29 -52 37 19 6 14 33 -5 30 -11 -2 -21 7 -27 23 -7 22 -5 32 12 54 12
15 22 32 22 36 0 15 -35 10 -53 -8z"/>
<path d="M2637 1933 c-12 -11 -8 -23 8 -23 8 0 15 7 15 15 0 16 -12 20 -23 8z"/>
<path d="M2712 1910 c1 -22 4 -28 12 -20 15 15 24 12 36 -9 8 -15 4 -31 -15
-68 -24 -49 -56 -73 -95 -73 -23 0 -32 -13 -24 -34 8 -21 30 -20 42 0 5 9 25
18 44 20 54 4 130 54 151 97 17 37 41 48 50 25 4 -10 6 -10 6 0 1 8 11 22 24
33 22 18 22 18 -58 19 -61 0 -89 5 -118 20 -49 27 -56 25 -55 -10z"/>
<path d="M2490 1915 c0 -17 2 -18 24 -9 23 9 20 24 -4 24 -11 0 -20 -7 -20
-15z"/>
<path d="M2506 1878 c-53 -48 -35 -113 42 -145 47 -19 54 -7 14 25 -24 20 -34
38 -38 64 -4 33 -1 39 25 52 27 14 31 14 54 -4 26 -21 42 -14 31 14 -10 26
-97 22 -128 -6z"/>
<path d="M2445 1860 c-3 -5 -1 -10 4 -10 6 0 11 5 11 10 0 6 -2 10 -4 10 -3 0
-8 -4 -11 -10z"/>
<path d="M2305 1851 c-3 -5 -1 -12 5 -16 5 -3 10 1 10 9 0 18 -6 21 -15 7z"/>
<path d="M2554 1834 c3 -9 6 -18 6 -20 0 -2 5 -4 10 -4 6 0 10 9 10 20 0 12
-7 20 -16 20 -11 0 -14 -5 -10 -16z"/>
<path d="M2640 1820 c0 -5 5 -10 10 -10 6 0 10 5 10 10 0 6 -4 10 -10 10 -5 0
-10 -4 -10 -10z"/>
<path d="M2877 1814 c-4 -4 -7 -14 -7 -23 0 -11 3 -12 11 -4 6 6 10 16 7 23
-2 6 -7 8 -11 4z"/>
<path d="M2440 1781 c0 -6 5 -13 10 -16 6 -3 10 1 10 9 0 9 -4 16 -10 16 -5 0
-10 -4 -10 -9z"/>
<path d="M2530 1710 c0 -5 7 -10 16 -10 8 0 12 5 9 10 -3 6 -10 10 -16 10 -5
0 -9 -4 -9 -10z"/>
<path d="M2755 1711 c-3 -5 -1 -12 5 -16 12 -7 30 2 30 16 0 12 -27 12 -35 0z"/>
<path d="M2425 1600 c3 -5 10 -10 16 -10 5 0 9 5 9 10 0 6 -7 10 -16 10 -8 0
-12 -4 -9 -10z"/>
<path d="M2178 1523 c7 -3 16 -2 19 1 4 3 -2 6 -13 5 -11 0 -14 -3 -6 -6z"/>
<path d="M1106 3822 c-10 -12 -16 -25 -15 -31 2 -6 42 -53 88 -106 83 -94 84
-95 105 -78 11 10 23 19 25 20 3 2 -34 46 -145 172 -39 43 -39 43 -58 23z"/>
<path d="M3695 3711 c-63 -26 -104 -107 -84 -168 12 -36 89 -123 109 -123 7 0
35 22 63 50 l52 49 -37 38 c-35 35 -39 36 -55 21 -14 -14 -14 -20 -3 -33 11
-14 10 -19 -8 -37 l-21 -21 -20 24 c-30 36 -27 85 8 120 43 42 75 39 126 -15
35 -36 44 -41 58 -31 22 16 22 22 -9 62 -48 64 -118 88 -179 64z"/>
<path d="M938 3646 c-17 -23 -16 -24 83 -116 l101 -93 53 59 c59 64 63 75 39
95 -15 12 -21 8 -51 -28 l-35 -42 -80 72 c-43 40 -82 73 -86 74 -4 1 -15 -8
-24 -21z"/>
<path d="M447 3489 c-99 -52 -225 -137 -243 -164 -21 -31 -16 -63 33 -242 31
-113 38 -131 51 -121 17 15 11 89 -19 216 -10 45 -19 91 -19 101 0 11 32 40
87 77 106 72 154 110 155 121 0 4 4 16 9 26 12 22 14 22 -54 -14z"/>
<path d="M3893 3470 c-114 -79 -134 -120 -93 -187 28 -46 64 -67 104 -60 38 6
186 96 186 113 0 5 -6 19 -14 29 -13 18 -17 16 -94 -33 -45 -29 -89 -52 -99
-52 -45 0 -57 53 -20 87 12 11 50 39 84 62 63 41 63 42 47 66 -9 14 -19 25
-23 24 -3 0 -38 -22 -78 -49z"/>
<path d="M800 3465 l-22 -36 52 -67 c29 -37 67 -86 84 -109 17 -23 34 -42 38
-43 4 0 15 11 24 25 16 24 16 27 -5 49 -26 27 -26 31 -1 66 19 26 22 27 55 17
31 -9 37 -8 50 9 8 10 14 24 15 29 0 6 -53 26 -118 47 -64 20 -124 39 -133 43
-12 4 -23 -4 -39 -30z m140 -73 c0 -4 -7 -15 -14 -24 -12 -16 -14 -16 -32 5
-50 57 -50 58 0 41 25 -9 46 -19 46 -22z"/>
<path d="M4309 3487 c6 -8 8 -16 6 -19 -3 -3 11 -18 32 -34 21 -15 44 -34 51
-41 7 -7 38 -29 68 -49 78 -52 80 -60 54 -195 -20 -104 -21 -179 -2 -179 14 0
66 205 70 276 l4 71 -45 39 c-80 70 -279 179 -238 131z"/>
<path d="M666 3244 c-20 -43 -18 -45 69 -115 30 -24 53 -44 52 -46 -2 -1 -41
4 -87 12 -78 12 -86 12 -98 -3 -13 -18 -27 -61 -21 -66 4 -3 216 -117 230
-124 6 -3 32 49 27 53 -2 2 -41 21 -87 44 -84 43 -100 58 -43 42 17 -5 60 -12
95 -16 60 -7 65 -6 72 14 6 20 -28 59 -126 141 -18 14 1 10 69 -17 93 -37 107
-37 114 1 2 15 -19 27 -122 67 -69 27 -125 49 -126 49 0 0 -8 -16 -18 -36z"/>
<path d="M4010 3183 c-63 -8 -118 -18 -122 -22 -4 -3 -2 -17 5 -31 10 -21 19
-24 48 -22 31 3 36 0 52 -32 16 -35 16 -35 -10 -56 -23 -18 -25 -25 -17 -47 5
-15 14 -28 19 -29 6 -2 55 39 110 90 l100 94 -17 36 c-11 22 -24 36 -35 35
-10 -1 -70 -8 -133 -16z m110 -47 c0 -2 -16 -16 -36 -31 -29 -22 -38 -25 -45
-14 -15 25 -10 38 19 42 42 6 62 7 62 3z"/>
<path d="M4165 2950 c-33 -10 -86 -26 -118 -35 -52 -15 -57 -19 -51 -38 11
-37 20 -40 68 -24 43 15 45 15 51 -4 8 -25 1 -35 -46 -65 -34 -21 -38 -28 -33
-52 4 -15 8 -29 10 -31 6 -7 93 49 103 67 8 14 12 15 22 5 24 -23 76 -16 99
15 25 30 23 82 -4 147 -17 40 -19 40 -101 15z m71 -75 c12 -48 -44 -77 -66
-34 -15 27 -7 46 22 52 13 2 26 5 30 6 4 0 10 -10 14 -24z"/>
<path d="M584 2896 c-65 -29 -97 -104 -71 -168 54 -128 238 -123 267 7 17 74
-27 143 -105 164 -49 13 -53 13 -91 -3z m124 -89 c52 -49 5 -117 -70 -103 -75
14 -106 69 -63 112 23 23 32 25 68 20 23 -4 52 -17 65 -29z"/>
<path d="M185 2653 c-26 -38 -73 -104 -105 -148 -35 -46 -60 -90 -60 -105 0
-26 121 -214 184 -285 l36 -40 -5 45 c-3 25 -10 47 -15 48 -6 2 -10 8 -10 13
0 6 -8 22 -18 37 -11 15 -32 47 -47 72 -15 25 -37 58 -47 73 -11 16 -17 36
-13 45 3 9 39 66 78 127 55 83 73 119 74 148 1 20 0 37 -2 37 -2 0 -25 -30
-50 -67z"/>
<path d="M4195 2681 c-66 -9 -125 -19 -131 -23 -16 -11 2 -124 26 -164 56 -90
211 -74 241 25 12 39 5 167 -9 174 -4 2 -61 -4 -127 -12z m95 -91 c0 -15 -3
-36 -6 -45 -8 -21 -56 -45 -89 -45 -35 0 -88 52 -83 82 3 21 11 24 83 33 44 6
83 9 88 7 4 -2 7 -16 7 -32z"/>
<path d="M4571 2662 c-1 -41 21 -85 93 -185 l57 -78 -23 -32 c-24 -34 -36 -50
-54 -70 -45 -51 -82 -135 -74 -166 5 -23 10 -19 55 45 27 38 70 95 97 127 26
33 51 70 54 84 7 27 -21 72 -120 197 -31 38 -62 78 -70 90 -14 20 -15 20 -15
-12z"/>
<path d="M476 2581 c-17 -26 -17 -99 -2 -129 33 -64 100 -55 145 18 17 27 38
50 46 50 21 0 29 -44 16 -81 -13 -36 -13 -34 15 -43 45 -14 62 111 22 159 -45
52 -109 32 -149 -47 -21 -41 -30 -46 -48 -24 -9 11 -10 25 -2 51 8 31 7 37 -7
42 -9 3 -20 8 -24 10 -4 2 -9 -1 -12 -6z"/>
<path d="M580 2281 c-22 -48 -24 -49 -76 -56 -30 -3 -54 -10 -54 -14 0 -4 16
-23 36 -42 35 -33 35 -35 29 -93 l-7 -58 50 27 51 27 47 -26 c26 -14 49 -25
51 -23 2 2 -1 28 -7 57 l-10 54 41 42 41 41 -56 7 c-55 7 -57 9 -81 57 -14 27
-27 49 -28 49 -2 0 -14 -22 -27 -49z"/>
<path d="M4160 2281 c-22 -48 -24 -49 -76 -56 -30 -3 -54 -10 -54 -14 0 -4 17
-24 39 -45 38 -37 38 -38 29 -88 -5 -27 -7 -52 -5 -54 2 -2 25 7 50 21 l46 26
50 -26 c55 -28 55 -28 42 45 -9 43 -8 46 30 83 21 22 39 41 39 42 0 2 -25 7
-56 11 -56 7 -56 7 -76 55 -12 27 -24 49 -28 49 -3 0 -17 -22 -30 -49z"/>
<path d="M635 1911 c-42 -19 -65 -53 -65 -97 0 -31 26 -94 38 -94 18 0 31 25
22 40 -18 28 -11 78 12 94 49 35 118 5 118 -50 0 -21 4 -25 23 -22 17 2 21 8
19 28 -6 42 -25 73 -61 97 -41 28 -54 28 -106 4z"/>
<path d="M4211 1890 c-6 -22 -13 -40 -15 -40 -1 0 -36 11 -77 25 -79 27 -99
27 -99 -4 0 -15 19 -25 101 -51 55 -17 102 -30 105 -28 8 9 41 128 36 133 -17
17 -40 2 -51 -35z"/>
<path d="M265 1844 c-4 -16 -9 -36 -12 -44 -13 -38 -53 -212 -58 -256 -9 -66
10 -88 133 -161 53 -31 114 -67 134 -80 51 -31 61 -29 40 10 -12 20 -57 58
-127 105 -61 41 -114 82 -119 92 -6 13 -1 59 12 132 36 188 35 185 19 209
l-16 22 -6 -29z"/>
<path d="M4511 1827 c-6 -16 -11 -39 -11 -52 0 -20 28 -173 46 -250 4 -16 -14
-33 -99 -88 -112 -73 -131 -89 -142 -126 -7 -23 -6 -23 51 9 103 56 221 129
234 145 20 24 13 79 -29 240 -36 138 -40 148 -50 122z"/>
<path d="M3995 1804 c-26 -40 -24 -93 4 -115 32 -26 45 -24 84 11 19 17 42 30
51 30 20 0 21 -30 1 -56 -19 -25 -19 -40 1 -48 20 -8 40 16 53 62 26 90 -67
131 -128 58 -33 -39 -56 -2 -26 41 14 20 14 23 -4 32 -15 9 -22 6 -36 -15z"/>
<path d="M703 1728 c-87 -39 -91 -42 -81 -64 10 -22 12 -23 47 -8 20 9 64 27
99 42 51 21 62 30 60 46 -5 31 -25 29 -125 -16z"/>
<path d="M747 1649 c-89 -45 -97 -51 -87 -69 6 -11 12 -20 14 -20 13 0 196 92
196 98 0 5 -6 15 -12 24 -12 15 -23 11 -111 -33z"/>
<path d="M3935 1659 c-8 -25 -12 -20 55 -54 77 -38 92 -53 79 -77 -8 -14 -7
-24 2 -35 12 -13 15 -13 31 7 28 34 23 85 -9 108 -34 24 -129 72 -142 72 -5 0
-13 -9 -16 -21z"/>
<path d="M787 1576 c-48 -29 -90 -56 -93 -59 -8 -8 34 -76 65 -104 17 -17 36
-23 68 -23 38 0 51 6 79 34 44 44 44 82 4 154 -17 28 -31 52 -33 52 -1 -1 -42
-25 -90 -54z m101 -44 c24 -68 -67 -123 -118 -72 -11 11 -20 23 -20 28 0 8
100 70 117 71 6 1 15 -12 21 -27z"/>
<path d="M3816 1455 c-17 -26 -17 -27 19 -73 21 -26 51 -66 69 -89 36 -49 41
-51 56 -22 9 16 8 24 -4 38 -20 22 -20 26 0 56 13 21 19 23 42 14 21 -8 29 -7
39 7 7 10 13 21 13 25 0 4 -37 19 -82 33 -137 41 -133 41 -152 11z m114 -54
c0 -3 -5 -13 -10 -21 -7 -12 -13 -11 -34 10 -35 32 -33 40 9 27 19 -6 35 -13
35 -16z"/>
<path d="M908 1381 c-53 -20 -100 -39 -104 -43 -16 -16 19 -38 50 -32 27 4 34
1 45 -19 11 -21 11 -28 -2 -48 -13 -21 -14 -27 -2 -43 8 -10 18 -15 23 -12 6
3 38 44 71 92 l62 85 -21 30 c-12 16 -22 29 -23 28 -1 -1 -46 -18 -99 -38z
m60 -51 c-12 -16 -25 -30 -29 -30 -7 0 -22 31 -17 34 12 7 55 25 61 25 4 1 -2
-12 -15 -29z"/>
<path d="M3741 1349 c-12 -20 -10 -24 18 -46 l31 -25 -21 -29 c-25 -36 -35
-36 -69 -4 -26 25 -27 25 -44 6 -17 -18 -14 -21 63 -90 45 -39 85 -71 90 -71
5 0 15 7 22 16 11 14 9 20 -19 43 -39 31 -40 40 -7 71 l25 24 30 -29 c24 -23
32 -26 45 -15 8 7 15 18 14 24 0 9 -140 136 -158 144 -4 1 -12 -8 -20 -19z"/>
<path d="M1010 1225 c-71 -71 -74 -76 -57 -92 11 -11 21 -14 25 -8 4 6 28 30
54 54 l46 43 -29 -83 -30 -83 21 -20 20 -20 75 74 c41 41 75 80 75 87 0 30
-26 22 -72 -23 -34 -33 -49 -42 -45 -29 3 11 13 46 23 78 16 55 16 58 -1 77
-10 11 -21 20 -24 20 -4 0 -40 -34 -81 -75z"/>
<path d="M3562 1157 l-23 -24 48 -101 c26 -56 53 -101 59 -101 24 -2 35 25 22
53 -10 23 -9 30 9 47 17 17 23 18 46 8 21 -9 30 -9 42 1 8 7 15 16 15 20 0 7
-152 100 -190 118 -3 1 -16 -8 -28 -21z m98 -81 c0 -2 -6 -9 -14 -15 -12 -10
-18 -7 -30 18 -22 42 -20 45 14 21 17 -12 30 -23 30 -24z"/>
<path d="M1157 1068 c-52 -63 -64 -84 -56 -95 17 -20 35 -16 53 12 17 26 46
34 46 13 0 -7 -4 -30 -9 -50 -7 -32 -5 -40 14 -58 l23 -22 12 72 c7 39 17 73
24 75 6 2 31 9 55 15 l44 12 -20 20 c-20 19 -23 19 -72 5 -28 -8 -51 -13 -51
-10 0 3 11 19 25 35 20 24 23 33 14 44 -6 8 -17 14 -23 14 -6 0 -42 -37 -79
-82z"/>
<path d="M654 1019 c34 -276 41 -302 89 -333 12 -8 78 -22 147 -31 169 -22
180 -23 180 -15 0 23 -35 40 -115 55 -132 24 -193 43 -203 63 -8 15 -18 65
-38 186 -10 65 -25 102 -45 115 -22 13 -22 13 -15 -40z"/>
<path d="M3412 1029 c-23 -17 -42 -34 -42 -37 1 -16 122 -172 134 -172 7 0 31
17 54 38 31 29 42 47 42 69 0 32 -26 63 -53 63 -11 0 -17 8 -17 23 0 55 -55
62 -118 16z m75 -25 c3 -8 -2 -23 -11 -32 -15 -15 -17 -15 -33 1 -17 17 -17
19 1 33 25 18 35 18 43 -2z m63 -84 c0 -10 -7 -24 -16 -31 -14 -11 -19 -10
-36 11 -19 24 -19 24 3 36 28 15 49 8 49 -16z"/>
<path d="M4107 1025 c-19 -14 -46 -134 -47 -207 0 -67 -28 -86 -163 -108 -65
-11 -120 -20 -122 -20 -1 0 -10 -11 -18 -24 -16 -24 -16 -24 21 -20 246 24
293 37 318 86 14 28 39 246 32 287 -3 17 -5 18 -21 6z"/>
<path d="M1326 940 c-47 -39 -86 -75 -86 -80 0 -18 42 -22 60 -5 18 17 21 17
45 1 22 -14 25 -22 20 -49 -5 -25 -2 -35 15 -45 16 -10 21 -10 25 0 2 7 17 57
33 110 31 103 31 106 -15 132 -6 3 -49 -25 -97 -64z m73 -28 c-11 -33 -23 -40
-34 -21 -7 10 34 63 42 56 2 -2 -2 -18 -8 -35z"/>
<path d="M3293 947 c-29 -17 -53 -34 -53 -38 0 -6 98 -170 108 -181 6 -6 100
47 119 66 3 3 0 12 -7 21 -11 13 -16 13 -47 -6 -32 -20 -36 -20 -50 -6 -13 13
-14 19 -4 31 7 8 21 18 32 21 20 7 26 30 9 40 -5 3 -24 -2 -41 -10 -28 -15
-33 -15 -47 -1 -14 13 -11 17 22 37 24 14 35 27 32 36 -3 8 -6 17 -6 19 0 9
-18 2 -67 -29z"/>
<path d="M1537 807 c-26 -50 -47 -95 -47 -99 0 -4 9 -12 19 -18 18 -9 25 0 71
87 47 90 50 99 34 110 -10 7 -20 13 -23 13 -3 0 -27 -42 -54 -93z"/>
<path d="M3161 875 c-23 -13 -47 -27 -52 -32 -6 -6 69 -185 85 -200 4 -5 126
60 126 66 0 3 -4 12 -9 19 -7 11 -16 10 -48 -7 l-40 -20 -11 24 c-10 21 -8 25
24 40 36 17 39 22 25 43 -7 12 -14 11 -40 -2 -17 -9 -36 -14 -41 -11 -20 12
-9 36 24 52 29 14 33 19 25 35 -12 22 -13 22 -68 -7z"/>
<path d="M1616 775 c-20 -46 -39 -91 -42 -99 -4 -10 10 -23 45 -40 58 -30 77
-32 85 -11 4 10 -7 21 -34 35 l-40 20 26 58 c44 98 46 105 32 114 -27 16 -37
6 -72 -77z"/>
<path d="M3052 823 c-6 -2 -15 -23 -18 -44 l-7 -40 -28 27 c-26 25 -31 26 -56
15 -24 -11 -26 -14 -12 -24 8 -7 30 -25 49 -40 l33 -28 -10 -59 c-5 -33 -8
-62 -5 -64 2 -3 15 0 28 6 19 9 24 19 24 50 0 21 3 38 7 38 4 0 19 -12 34 -26
19 -18 33 -24 48 -19 30 9 26 19 -24 61 -40 32 -45 41 -40 66 3 15 8 42 11 58
6 30 -3 36 -34 23z"/>
<path d="M1807 742 c-59 -82 -99 -143 -95 -146 1 -2 13 -6 24 -10 16 -5 26 0
38 18 14 22 19 24 45 15 23 -8 31 -17 33 -42 2 -24 8 -33 26 -35 22 -3 22 -2
22 111 l0 115 -30 10 c-28 10 -31 8 -63 -36z m43 -56 c0 -29 -3 -33 -20 -29
-24 6 -24 7 -4 38 21 33 24 32 24 -9z"/>
<path d="M2763 733 c-19 -4 -22 -13 -28 -71 -3 -37 -8 -88 -11 -114 -4 -46 -4
-48 21 -48 18 0 25 5 25 19 0 36 12 51 41 51 18 0 32 -7 39 -20 11 -21 60 -28
60 -9 0 19 -105 199 -115 198 -5 -1 -20 -4 -32 -6z m41 -90 c16 -33 16 -33 -7
-33 -20 0 -23 4 -19 36 2 19 5 34 7 32 1 -2 10 -18 19 -35z"/>
<path d="M1963 630 c-51 -96 -52 -99 -31 -106 20 -6 41 9 51 39 1 5 16 7 35 2
27 -5 32 -11 32 -36 0 -22 5 -30 25 -35 14 -4 27 -5 29 -3 7 9 -17 215 -26
227 -6 6 -22 12 -37 12 -23 0 -32 -13 -78 -100z m81 8 c5 -30 4 -38 -8 -38
-23 0 -27 14 -14 48 7 17 13 30 14 29 1 -1 4 -19 8 -39z"/>
<path d="M2157 688 c-3 -13 -9 -64 -12 -114 l-7 -91 63 -6 c45 -5 65 -4 71 5
14 23 2 33 -40 36 -25 2 -42 8 -42 15 1 7 5 46 10 87 6 54 5 77 -3 82 -21 14
-35 8 -40 -14z"/>
<path d="M2507 693 c-10 -3 -16 -10 -14 -17 3 -7 9 -55 12 -105 9 -104 11
-107 82 -96 63 9 113 57 113 109 0 44 -22 91 -49 106 -20 10 -109 12 -144 3z
m110 -41 c23 -14 35 -64 23 -93 -11 -26 -65 -56 -74 -41 -2 4 -7 37 -11 75
l-7 67 28 0 c16 0 34 -4 41 -8z"/>
<path d="M2326 598 c-16 -51 -31 -101 -33 -110 -4 -14 1 -18 20 -18 19 0 28 7
36 31 9 28 14 30 38 24 29 -7 43 -21 43 -42 0 -8 13 -13 29 -13 l29 0 -32 108
-32 107 -35 3 -35 3 -28 -93z m74 3 c7 -25 6 -33 -6 -38 -22 -8 -27 2 -20 43
8 41 13 40 26 -5z"/>
<path d="M1290 482 c0 -5 9 -17 20 -27 11 -10 20 -22 20 -27 0 -4 34 -60 77
-123 l76 -115 42 0 c24 0 83 12 131 26 49 14 105 31 124 36 l34 10 -28 15
c-30 16 -73 12 -156 -12 -110 -33 -101 -36 -182 78 -76 108 -103 139 -111 131
-3 -3 -15 -1 -26 6 -12 6 -21 7 -21 2z"/>
<path d="M3475 470 c-3 -6 -13 -9 -20 -8 -15 3 -44 -28 -122 -134 -63 -86 -75
-91 -149 -64 -56 19 -164 31 -164 17 0 -6 -9 -11 -20 -11 -41 0 -18 -17 38
-27 31 -5 97 -21 146 -33 79 -21 91 -22 114 -9 41 23 205 260 190 275 -3 3 -9
0 -13 -6z"/>
<path d="M2169 173 c228 -186 232 -186 333 -96 35 32 81 73 103 91 l40 32 -42
-3 c-42 -4 -78 -26 -156 -94 -20 -18 -41 -33 -46 -33 -5 0 -46 28 -90 61 -67
51 -90 62 -129 66 l-47 4 34 -28z"/>
</g>
</svg>
